<svg id="visual" viewBox="0 0 1980 1080" width="1980" height="1080" xmlns="http://www.w3.org/2000/svg" xmlns:xlink="http://www.w3.org/1999/xlink" version="1.1"><rect x="0" y="0" width="1980" height="1080" fill="#020300"></rect><path d="M569 0L708 77L532 154L824 231L721 309L888 386L1018 463L908 540L733 617L837 694L1055 771L1036 849L1184 926L613 1003L701 1080L0 1080L0 1003L0 926L0 849L0 771L0 694L0 617L0 540L0 463L0 386L0 309L0 231L0 154L0 77L0 0Z" fill="#8325a0"></path><path d="M607 0L693 77L867 154L576 231L810 309L840 386L901 463L531 540L940 617L444 694L987 771L799 849L529 926L373 1003L425 1080L0 1080L0 1003L0 926L0 849L0 771L0 694L0 617L0 540L0 463L0 386L0 309L0 231L0 154L0 77L0 0Z" fill="#841db2"></path><path d="M765 0L381 77L453 154L335 231L602 309L552 386L645 463L458 540L274 617L402 694L475 771L406 849L439 926L709 1003L239 1080L0 1080L0 1003L0 926L0 849L0 771L0 694L0 617L0 540L0 463L0 386L0 309L0 231L0 154L0 77L0 0Z" fill="#8114c6"></path><path d="M507 0L227 77L564 154L305 231L531 309L442 386L163 463L180 540L308 617L593 694L361 771L365 849L399 926L168 1003L293 1080L0 1080L0 1003L0 926L0 849L0 771L0 694L0 617L0 540L0 463L0 386L0 309L0 231L0 154L0 77L0 0Z" fill="#7b0cdb"></path><path d="M310 0L123 77L78 154L179 231L117 309L157 386L325 463L295 540L239 617L164 694L70 771L204 849L30 926L24 1003L25 1080L0 1080L0 1003L0 926L0 849L0 771L0 694L0 617L0 540L0 463L0 386L0 309L0 231L0 154L0 77L0 0Z" fill="#6e09f1"></path></svg>