<svg id="visual" viewBox="0 0 1980 1080" width="1980" height="1080" xmlns="http://www.w3.org/2000/svg" xmlns:xlink="http://www.w3.org/1999/xlink" version="1.1"><rect x="0" y="0" width="1980" height="1080" fill="#020300"></rect><path d="M766 0L600 0L600 47L937 47L937 94L945 94L945 141L865 141L865 188L720 188L720 235L606 235L606 282L656 282L656 329L596 329L596 376L842 376L842 423L693 423L693 470L874 470L874 517L984 517L984 563L936 563L936 610L929 610L929 657L966 657L966 704L806 704L806 751L701 751L701 798L705 798L705 845L937 845L937 892L921 892L921 939L843 939L843 986L692 986L692 1033L875 1033L875 1080L0 1080L0 1033L0 1033L0 986L0 986L0 939L0 939L0 892L0 892L0 845L0 845L0 798L0 798L0 751L0 751L0 704L0 704L0 657L0 657L0 610L0 610L0 563L0 563L0 517L0 517L0 470L0 470L0 423L0 423L0 376L0 376L0 329L0 329L0 282L0 282L0 235L0 235L0 188L0 188L0 141L0 141L0 94L0 94L0 47L0 47L0 0L0 0Z" fill="#6e09f1"></path><path d="M584 0L475 0L475 47L437 47L437 94L546 94L546 141L691 141L691 188L429 188L429 235L476 235L476 282L572 282L572 329L512 329L512 376L718 376L718 423L760 423L760 470L697 470L697 517L478 517L478 563L675 563L675 610L429 610L429 657L777 657L777 704L472 704L472 751L637 751L637 798L608 798L608 845L707 845L707 892L487 892L487 939L648 939L648 986L437 986L437 1033L501 1033L501 1080L0 1080L0 1033L0 1033L0 986L0 986L0 939L0 939L0 892L0 892L0 845L0 845L0 798L0 798L0 751L0 751L0 704L0 704L0 657L0 657L0 610L0 610L0 563L0 563L0 517L0 517L0 470L0 470L0 423L0 423L0 376L0 376L0 329L0 329L0 282L0 282L0 235L0 235L0 188L0 188L0 141L0 141L0 94L0 94L0 47L0 47L0 0L0 0Z" fill="#7d0ed4"></path><path d="M391 0L439 0L439 47L377 47L377 94L298 94L298 141L505 141L505 188L262 188L262 235L426 235L426 282L487 282L487 329L424 329L424 376L521 376L521 423L591 423L591 470L508 470L508 517L215 517L215 563L574 563L574 610L308 610L308 657L235 657L235 704L461 704L461 751L357 751L357 798L566 798L566 845L509 845L509 892L385 892L385 939L250 939L250 986L581 986L581 1033L368 1033L368 1080L0 1080L0 1033L0 1033L0 986L0 986L0 939L0 939L0 892L0 892L0 845L0 845L0 798L0 798L0 751L0 751L0 704L0 704L0 657L0 657L0 610L0 610L0 563L0 563L0 517L0 517L0 470L0 470L0 423L0 423L0 376L0 376L0 329L0 329L0 282L0 282L0 235L0 235L0 188L0 188L0 141L0 141L0 94L0 94L0 47L0 47L0 0L0 0Z" fill="#831ab9"></path><path d="M202 0L9 0L9 47L377 47L377 94L37 94L37 141L140 141L140 188L387 188L387 235L353 235L353 282L54 282L54 329L41 329L41 376L232 376L232 423L107 423L107 470L198 470L198 517L375 517L375 563L372 563L372 610L185 610L185 657L191 657L191 704L170 704L170 751L105 751L105 798L241 798L241 845L361 845L361 892L354 892L354 939L64 939L64 986L391 986L391 1033L247 1033L247 1080L0 1080L0 1033L0 1033L0 986L0 986L0 939L0 939L0 892L0 892L0 845L0 845L0 798L0 798L0 751L0 751L0 704L0 704L0 657L0 657L0 610L0 610L0 563L0 563L0 517L0 517L0 470L0 470L0 423L0 423L0 376L0 376L0 329L0 329L0 282L0 282L0 235L0 235L0 188L0 188L0 141L0 141L0 94L0 94L0 47L0 47L0 0L0 0Z" fill="#8325a0"></path></svg>