<svg id="visual" viewBox="0 0 1920 5000" width="1920" height="5000" xmlns="http://www.w3.org/2000/svg" xmlns:xlink="http://www.w3.org/1999/xlink" version="1.1"><rect width="1920" height="5000" fill="#180008"></rect><g><g transform="translate(949 2101)"><path d="M0 -146.1L126.6 -73.1L126.6 73.1L0 146.1L-126.6 73.1L-126.6 -73.1Z" fill="none" stroke="#E53BFF" stroke-width="5"></path></g><g transform="translate(1414 118)"><path d="M0 -73L63.2 -36.5L63.2 36.5L0 73L-63.2 36.5L-63.2 -36.5Z" fill="none" stroke="#E53BFF" stroke-width="5"></path></g><g transform="translate(703 3602)"><path d="M0 -52L45 -26L45 26L0 52L-45 26L-45 -26Z" fill="none" stroke="#E53BFF" stroke-width="5"></path></g><g transform="translate(432 616)"><path d="M0 -38L32.9 -19L32.9 19L0 38L-32.9 19L-32.9 -19Z" fill="none" stroke="#E53BFF" stroke-width="5"></path></g><g transform="translate(1659 2352)"><path d="M0 -81L70.1 -40.5L70.1 40.5L0 81L-70.1 40.5L-70.1 -40.5Z" fill="none" stroke="#E53BFF" stroke-width="5"></path></g><g transform="translate(1556 3287)"><path d="M0 -112L97 -56L97 56L0 112L-97 56L-97 -56Z" fill="none" stroke="#E53BFF" stroke-width="5"></path></g><g transform="translate(817 1176)"><path d="M0 -75L65 -37.5L65 37.5L0 75L-65 37.5L-65 -37.5Z" fill="none" stroke="#E53BFF" stroke-width="5"></path></g><g transform="translate(808 845)"><path d="M0 -134L116 -67L116 67L0 134L-116 67L-116 -67Z" fill="none" stroke="#E53BFF" stroke-width="5"></path></g><g transform="translate(1177 3142)"><path d="M0 -82L71 -41L71 41L0 82L-71 41L-71 -41Z" fill="none" stroke="#E53BFF" stroke-width="5"></path></g><g transform="translate(757 2340)"><path d="M0 -130L112.6 -65L112.6 65L0 130L-112.6 65L-112.6 -65Z" fill="none" stroke="#E53BFF" stroke-width="5"></path></g><g transform="translate(64 2145)"><path d="M0 -124L107.4 -62L107.4 62L0 124L-107.4 62L-107.4 -62Z" fill="none" stroke="#E53BFF" stroke-width="5"></path></g><g transform="translate(71 3880)"><path d="M0 -54L46.8 -27L46.8 27L0 54L-46.8 27L-46.8 -27Z" fill="none" stroke="#E53BFF" stroke-width="5"></path></g><g transform="translate(658 4162)"><path d="M0 -87L75.3 -43.5L75.3 43.5L0 87L-75.3 43.5L-75.3 -43.5Z" fill="none" stroke="#E53BFF" stroke-width="5"></path></g><g transform="translate(1114 812)"><path d="M0 -20L17.3 -10L17.3 10L0 20L-17.3 10L-17.3 -10Z" fill="none" stroke="#E53BFF" stroke-width="5"></path></g><g transform="translate(1324 4012)"><path d="M0 -119L103.1 -59.5L103.1 59.5L0 119L-103.1 59.5L-103.1 -59.5Z" fill="none" stroke="#E53BFF" stroke-width="5"></path></g><g transform="translate(297 1025)"><path d="M0 -76L65.8 -38L65.8 38L0 76L-65.8 38L-65.8 -38Z" fill="none" stroke="#E53BFF" stroke-width="5"></path></g><g transform="translate(278 2431)"><path d="M0 -87L75.3 -43.5L75.3 43.5L0 87L-75.3 43.5L-75.3 -43.5Z" fill="none" stroke="#E53BFF" stroke-width="5"></path></g><g transform="translate(367 3592)"><path d="M0 -113L97.9 -56.5L97.9 56.5L0 113L-97.9 56.5L-97.9 -56.5Z" fill="none" stroke="#E53BFF" stroke-width="5"></path></g><g transform="translate(1461 3749)"><path d="M0 -49L42.4 -24.5L42.4 24.5L0 49L-42.4 24.5L-42.4 -24.5Z" fill="none" stroke="#E53BFF" stroke-width="5"></path></g><g transform="translate(1900 1443)"><path d="M0 -121L104.8 -60.5L104.8 60.5L0 121L-104.8 60.5L-104.8 -60.5Z" fill="none" stroke="#E53BFF" stroke-width="5"></path></g><g transform="translate(1364 4492)"><path d="M0 -65L56.3 -32.5L56.3 32.5L0 65L-56.3 32.5L-56.3 -32.5Z" fill="none" stroke="#E53BFF" stroke-width="5"></path></g><g transform="translate(1254 3506)"><path d="M0 -114L98.7 -57L98.7 57L0 114L-98.7 57L-98.7 -57Z" fill="none" stroke="#E53BFF" stroke-width="5"></path></g><g transform="translate(250 3138)"><path d="M0 -108L93.5 -54L93.5 54L0 108L-93.5 54L-93.5 -54Z" fill="none" stroke="#E53BFF" stroke-width="5"></path></g><g transform="translate(105 2709)"><path d="M0 -107L92.7 -53.5L92.7 53.5L0 107L-92.7 53.5L-92.7 -53.5Z" fill="none" stroke="#E53BFF" stroke-width="5"></path></g><g transform="translate(1285 1465)"><path d="M0 -44L38.1 -22L38.1 22L0 44L-38.1 22L-38.1 -22Z" fill="none" stroke="#E53BFF" stroke-width="5"></path></g><g transform="translate(1733 2763)"><path d="M0 -35L30.3 -17.5L30.3 17.5L0 35L-30.3 17.5L-30.3 -17.5Z" fill="none" stroke="#E53BFF" stroke-width="5"></path></g><g transform="translate(1168 420)"><path d="M0 -64L55.4 -32L55.4 32L0 64L-55.4 32L-55.4 -32Z" fill="none" stroke="#E53BFF" stroke-width="5"></path></g><g transform="translate(598 1396)"><path d="M0 -40L34.6 -20L34.6 20L0 40L-34.6 20L-34.6 -20Z" fill="none" stroke="#E53BFF" stroke-width="5"></path></g><g transform="translate(779 508)"><path d="M0 -128L110.9 -64L110.9 64L0 128L-110.9 64L-110.9 -64Z" fill="none" stroke="#E53BFF" stroke-width="5"></path></g><g transform="translate(355 4378)"><path d="M0 -134L116 -67L116 67L0 134L-116 67L-116 -67Z" fill="none" stroke="#E53BFF" stroke-width="5"></path></g><g transform="translate(32 637)"><path d="M0 -30L26 -15L26 15L0 30L-26 15L-26 -15Z" fill="none" stroke="#E53BFF" stroke-width="5"></path></g><g transform="translate(1786 409)"><path d="M0 -50L43.3 -25L43.3 25L0 50L-43.3 25L-43.3 -25Z" fill="none" stroke="#E53BFF" stroke-width="5"></path></g><g transform="translate(394 4002)"><path d="M0 -112L97 -56L97 56L0 112L-97 56L-97 -56Z" fill="none" stroke="#E53BFF" stroke-width="5"></path></g><g transform="translate(804 4966)"><path d="M0 -31L26.8 -15.5L26.8 15.5L0 31L-26.8 15.5L-26.8 -15.5Z" fill="none" stroke="#E53BFF" stroke-width="5"></path></g><g transform="translate(520 1734)"><path d="M0 -143L123.8 -71.5L123.8 71.5L0 143L-123.8 71.5L-123.8 -71.5Z" stroke="#E53BFF" fill="none" stroke-width="5"></path></g><g transform="translate(755 3179)"><path d="M0 -38L32.9 -19L32.9 19L0 38L-32.9 19L-32.9 -19Z" stroke="#E53BFF" fill="none" stroke-width="5"></path></g><g transform="translate(1578 1827)"><path d="M0 -85L73.6 -42.5L73.6 42.5L0 85L-73.6 42.5L-73.6 -42.5Z" stroke="#E53BFF" fill="none" stroke-width="5"></path></g><g transform="translate(1470 730)"><path d="M0 -71L61.5 -35.5L61.5 35.5L0 71L-61.5 35.5L-61.5 -35.5Z" stroke="#E53BFF" fill="none" stroke-width="5"></path></g><g transform="translate(1889 4199)"><path d="M0 -83L71.9 -41.5L71.9 41.5L0 83L-71.9 41.5L-71.9 -41.5Z" stroke="#E53BFF" fill="none" stroke-width="5"></path></g><g transform="translate(1370 2423)"><path d="M0 -126L109.1 -63L109.1 63L0 126L-109.1 63L-109.1 -63Z" stroke="#E53BFF" fill="none" stroke-width="5"></path></g><g transform="translate(1783 1025)"><path d="M0 -54L46.8 -27L46.8 27L0 54L-46.8 27L-46.8 -27Z" stroke="#E53BFF" fill="none" stroke-width="5"></path></g><g transform="translate(581 2592)"><path d="M0 -59L51.1 -29.5L51.1 29.5L0 59L-51.1 29.5L-51.1 -29.5Z" stroke="#E53BFF" fill="none" stroke-width="5"></path></g><g transform="translate(541 264)"><path d="M0 -24L20.8 -12L20.8 12L0 24L-20.8 12L-20.8 -12Z" stroke="#E53BFF" fill="none" stroke-width="5"></path></g><g transform="translate(986 2919)"><path d="M0 -55L47.6 -27.5L47.6 27.5L0 55L-47.6 27.5L-47.6 -27.5Z" stroke="#E53BFF" fill="none" stroke-width="5"></path></g><g transform="translate(233 1605)"><path d="M0 -111L96.1 -55.5L96.1 55.5L0 111L-96.1 55.5L-96.1 -55.5Z" stroke="#E53BFF" fill="none" stroke-width="5"></path></g></g></svg>