<svg id="visual" viewBox="0 0 1920 5000" width="1920" height="5000" xmlns="http://www.w3.org/2000/svg" xmlns:xlink="http://www.w3.org/1999/xlink" version="1.1"><rect width="1920" height="5000" fill="#180008"></rect><g><g transform="translate(1271 1342)"><path d="M0 -252.8L218.9 -126.4L218.9 126.4L0 252.8L-218.9 126.4L-218.9 -126.4Z" fill="none" stroke="#E53BFF" stroke-width="5"></path></g><g transform="translate(557 168)"><path d="M0 -35L30.3 -17.5L30.3 17.5L0 35L-30.3 17.5L-30.3 -17.5Z" fill="none" stroke="#E53BFF" stroke-width="5"></path></g><g transform="translate(750 2024)"><path d="M0 -193L167.1 -96.5L167.1 96.5L0 193L-167.1 96.5L-167.1 -96.5Z" stroke="#E53BFF" fill="none" stroke-width="5"></path></g><g transform="translate(1606 3937)"><path d="M0 -36L31.2 -18L31.2 18L0 36L-31.2 18L-31.2 -18Z" stroke="#E53BFF" fill="none" stroke-width="5"></path></g><g transform="translate(230 4752)"><path d="M0 -106L91.8 -53L91.8 53L0 106L-91.8 53L-91.8 -53Z" stroke="#E53BFF" fill="none" stroke-width="5"></path></g><g transform="translate(533 3523)"><path d="M0 -104L90.1 -52L90.1 52L0 104L-90.1 52L-90.1 -52Z" stroke="#E53BFF" fill="none" stroke-width="5"></path></g><g transform="translate(411 2920)"><path d="M0 -212L183.6 -106L183.6 106L0 212L-183.6 106L-183.6 -106Z" stroke="#E53BFF" fill="none" stroke-width="5"></path></g><g transform="translate(1845 1446)"><path d="M0 -73L63.2 -36.5L63.2 36.5L0 73L-63.2 36.5L-63.2 -36.5Z" stroke="#E53BFF" fill="none" stroke-width="5"></path></g><g transform="translate(1856 2190)"><path d="M0 -138L119.5 -69L119.5 69L0 138L-119.5 69L-119.5 -69Z" stroke="#E53BFF" fill="none" stroke-width="5"></path></g><g transform="translate(1509 3273)"><path d="M0 -111L96.1 -55.5L96.1 55.5L0 111L-96.1 55.5L-96.1 -55.5Z" stroke="#E53BFF" fill="none" stroke-width="5"></path></g><g transform="translate(394 2402)"><path d="M0 -116L100.5 -58L100.5 58L0 116L-100.5 58L-100.5 -58Z" stroke="#E53BFF" fill="none" stroke-width="5"></path></g><g transform="translate(1776 800)"><path d="M0 -131L113.4 -65.5L113.4 65.5L0 131L-113.4 65.5L-113.4 -65.5Z" stroke="#E53BFF" fill="none" stroke-width="5"></path></g><g transform="translate(16 806)"><path d="M0 -237L205.2 -118.5L205.2 118.5L0 237L-205.2 118.5L-205.2 -118.5Z" stroke="#E53BFF" fill="none" stroke-width="5"></path></g><g transform="translate(1297 2492)"><path d="M0 -108L93.5 -54L93.5 54L0 108L-93.5 54L-93.5 -54Z" stroke="#E53BFF" fill="none" stroke-width="5"></path></g><g transform="translate(484 1060)"><path d="M0 -148L128.2 -74L128.2 74L0 148L-128.2 74L-128.2 -74Z" stroke="#E53BFF" fill="none" stroke-width="5"></path></g></g></svg>